<mxfile host="Electron" agent="Mozilla/5.0 (Windows NT 10.0; Win64; x64) AppleWebKit/537.36 (KHTML, like Gecko) draw.io/24.7.17 Chrome/128.0.6613.36 Electron/32.0.1 Safari/537.36" version="24.7.17">
  <diagram id="R2lEEEUBdFMjLlhIrx00" name="Page-1">
    <mxGraphModel dx="982" dy="614" grid="1" gridSize="10" guides="1" tooltips="1" connect="1" arrows="1" fold="1" page="1" pageScale="1" pageWidth="850" pageHeight="1100" math="0" shadow="0" extFonts="Permanent Marker^https://fonts.googleapis.com/css?family=Permanent+Marker">
      <root>
        <mxCell id="0" />
        <mxCell id="1" parent="0" />
        <mxCell id="Ox4McI3t5Cwz6AnTKyfM-1" value="User" style="shape=table;startSize=30;container=1;collapsible=1;childLayout=tableLayout;fixedRows=1;rowLines=0;fontStyle=1;align=center;resizeLast=1;html=1;fontFamily=Consolas;strokeColor=default;fontColor=default;labelBackgroundColor=default;fontSize=14;" parent="1" vertex="1">
          <mxGeometry x="180" y="50" width="180" height="180" as="geometry" />
        </mxCell>
        <mxCell id="Ox4McI3t5Cwz6AnTKyfM-2" value="" style="shape=tableRow;horizontal=0;startSize=0;swimlaneHead=0;swimlaneBody=0;fillColor=none;collapsible=0;dropTarget=0;points=[[0,0.5],[1,0.5]];portConstraint=eastwest;top=0;left=0;right=0;bottom=1;fontFamily=Consolas;strokeColor=default;fontColor=default;labelBackgroundColor=default;fontSize=14;" parent="Ox4McI3t5Cwz6AnTKyfM-1" vertex="1">
          <mxGeometry y="30" width="180" height="30" as="geometry" />
        </mxCell>
        <mxCell id="Ox4McI3t5Cwz6AnTKyfM-3" value="PK" style="shape=partialRectangle;connectable=0;fillColor=none;top=0;left=0;bottom=0;right=0;fontStyle=1;overflow=hidden;whiteSpace=wrap;html=1;fontFamily=Consolas;strokeColor=default;fontColor=default;labelBackgroundColor=default;fontSize=14;" parent="Ox4McI3t5Cwz6AnTKyfM-2" vertex="1">
          <mxGeometry width="30" height="30" as="geometry">
            <mxRectangle width="30" height="30" as="alternateBounds" />
          </mxGeometry>
        </mxCell>
        <mxCell id="Ox4McI3t5Cwz6AnTKyfM-4" value="userId" style="shape=partialRectangle;connectable=0;fillColor=none;top=0;left=0;bottom=0;right=0;align=left;spacingLeft=6;fontStyle=5;overflow=hidden;whiteSpace=wrap;html=1;fontFamily=Consolas;strokeColor=default;fontColor=default;labelBackgroundColor=default;fontSize=14;" parent="Ox4McI3t5Cwz6AnTKyfM-2" vertex="1">
          <mxGeometry x="30" width="150" height="30" as="geometry">
            <mxRectangle width="150" height="30" as="alternateBounds" />
          </mxGeometry>
        </mxCell>
        <mxCell id="Ox4McI3t5Cwz6AnTKyfM-8" value="" style="shape=tableRow;horizontal=0;startSize=0;swimlaneHead=0;swimlaneBody=0;fillColor=none;collapsible=0;dropTarget=0;points=[[0,0.5],[1,0.5]];portConstraint=eastwest;top=0;left=0;right=0;bottom=0;fontFamily=Consolas;strokeColor=default;fontColor=default;labelBackgroundColor=default;fontSize=14;" parent="Ox4McI3t5Cwz6AnTKyfM-1" vertex="1">
          <mxGeometry y="60" width="180" height="30" as="geometry" />
        </mxCell>
        <mxCell id="Ox4McI3t5Cwz6AnTKyfM-9" value="" style="shape=partialRectangle;connectable=0;fillColor=none;top=0;left=0;bottom=0;right=0;editable=1;overflow=hidden;whiteSpace=wrap;html=1;fontFamily=Consolas;strokeColor=default;fontColor=default;labelBackgroundColor=default;fontSize=14;" parent="Ox4McI3t5Cwz6AnTKyfM-8" vertex="1">
          <mxGeometry width="30" height="30" as="geometry">
            <mxRectangle width="30" height="30" as="alternateBounds" />
          </mxGeometry>
        </mxCell>
        <mxCell id="Ox4McI3t5Cwz6AnTKyfM-10" value="&lt;div style=&quot;font-size: 14px; line-height: 19px; white-space: pre;&quot;&gt;&lt;font face=&quot;Helvetica&quot; style=&quot;font-size: 14px;&quot;&gt;firstName&lt;/font&gt;&lt;/div&gt;" style="shape=partialRectangle;connectable=0;fillColor=none;top=0;left=0;bottom=0;right=0;align=left;spacingLeft=6;overflow=hidden;whiteSpace=wrap;html=1;fontFamily=Consolas;strokeColor=default;fontColor=default;labelBackgroundColor=default;fontSize=14;" parent="Ox4McI3t5Cwz6AnTKyfM-8" vertex="1">
          <mxGeometry x="30" width="150" height="30" as="geometry">
            <mxRectangle width="150" height="30" as="alternateBounds" />
          </mxGeometry>
        </mxCell>
        <mxCell id="Ox4McI3t5Cwz6AnTKyfM-11" value="" style="shape=tableRow;horizontal=0;startSize=0;swimlaneHead=0;swimlaneBody=0;fillColor=none;collapsible=0;dropTarget=0;points=[[0,0.5],[1,0.5]];portConstraint=eastwest;top=0;left=0;right=0;bottom=0;fontFamily=Consolas;strokeColor=default;fontColor=default;labelBackgroundColor=default;fontSize=14;" parent="Ox4McI3t5Cwz6AnTKyfM-1" vertex="1">
          <mxGeometry y="90" width="180" height="30" as="geometry" />
        </mxCell>
        <mxCell id="Ox4McI3t5Cwz6AnTKyfM-12" value="" style="shape=partialRectangle;connectable=0;fillColor=none;top=0;left=0;bottom=0;right=0;editable=1;overflow=hidden;whiteSpace=wrap;html=1;fontFamily=Consolas;strokeColor=default;fontColor=default;labelBackgroundColor=default;fontSize=14;" parent="Ox4McI3t5Cwz6AnTKyfM-11" vertex="1">
          <mxGeometry width="30" height="30" as="geometry">
            <mxRectangle width="30" height="30" as="alternateBounds" />
          </mxGeometry>
        </mxCell>
        <mxCell id="Ox4McI3t5Cwz6AnTKyfM-13" value="&lt;div style=&quot;font-size: 14px; line-height: 19px; white-space: pre;&quot;&gt;&lt;span style=&quot;font-size: 14px;&quot;&gt;lastName&lt;/span&gt;&lt;/div&gt;" style="shape=partialRectangle;connectable=0;fillColor=none;top=0;left=0;bottom=0;right=0;align=left;spacingLeft=6;overflow=hidden;whiteSpace=wrap;html=1;fontFamily=Consolas;strokeColor=default;verticalAlign=middle;fontSize=14;fontColor=default;labelBackgroundColor=default;" parent="Ox4McI3t5Cwz6AnTKyfM-11" vertex="1">
          <mxGeometry x="30" width="150" height="30" as="geometry">
            <mxRectangle width="150" height="30" as="alternateBounds" />
          </mxGeometry>
        </mxCell>
        <mxCell id="Ox4McI3t5Cwz6AnTKyfM-55" style="shape=tableRow;horizontal=0;startSize=0;swimlaneHead=0;swimlaneBody=0;fillColor=none;collapsible=0;dropTarget=0;points=[[0,0.5],[1,0.5]];portConstraint=eastwest;top=0;left=0;right=0;bottom=0;fontFamily=Consolas;strokeColor=default;fontColor=default;labelBackgroundColor=default;fontSize=14;" parent="Ox4McI3t5Cwz6AnTKyfM-1" vertex="1">
          <mxGeometry y="120" width="180" height="30" as="geometry" />
        </mxCell>
        <mxCell id="Ox4McI3t5Cwz6AnTKyfM-56" style="shape=partialRectangle;connectable=0;fillColor=none;top=0;left=0;bottom=0;right=0;editable=1;overflow=hidden;whiteSpace=wrap;html=1;fontFamily=Consolas;strokeColor=default;fontColor=default;labelBackgroundColor=default;fontSize=14;" parent="Ox4McI3t5Cwz6AnTKyfM-55" vertex="1">
          <mxGeometry width="30" height="30" as="geometry">
            <mxRectangle width="30" height="30" as="alternateBounds" />
          </mxGeometry>
        </mxCell>
        <mxCell id="Ox4McI3t5Cwz6AnTKyfM-57" value="&lt;div style=&quot;font-size: 14px; line-height: 19px; white-space: pre;&quot;&gt;&lt;span style=&quot;font-size: 14px;&quot;&gt;email&lt;/span&gt;&lt;/div&gt;" style="shape=partialRectangle;connectable=0;fillColor=none;top=0;left=0;bottom=0;right=0;align=left;spacingLeft=6;overflow=hidden;whiteSpace=wrap;html=1;fontFamily=Consolas;strokeColor=default;fontColor=default;labelBackgroundColor=default;fontSize=14;" parent="Ox4McI3t5Cwz6AnTKyfM-55" vertex="1">
          <mxGeometry x="30" width="150" height="30" as="geometry">
            <mxRectangle width="150" height="30" as="alternateBounds" />
          </mxGeometry>
        </mxCell>
        <mxCell id="Ox4McI3t5Cwz6AnTKyfM-58" style="shape=tableRow;horizontal=0;startSize=0;swimlaneHead=0;swimlaneBody=0;fillColor=none;collapsible=0;dropTarget=0;points=[[0,0.5],[1,0.5]];portConstraint=eastwest;top=0;left=0;right=0;bottom=0;fontFamily=Consolas;strokeColor=default;fontColor=default;labelBackgroundColor=default;fontSize=14;" parent="Ox4McI3t5Cwz6AnTKyfM-1" vertex="1">
          <mxGeometry y="150" width="180" height="30" as="geometry" />
        </mxCell>
        <mxCell id="Ox4McI3t5Cwz6AnTKyfM-59" style="shape=partialRectangle;connectable=0;fillColor=none;top=0;left=0;bottom=0;right=0;editable=1;overflow=hidden;whiteSpace=wrap;html=1;fontFamily=Consolas;strokeColor=default;fontColor=default;labelBackgroundColor=default;fontSize=14;" parent="Ox4McI3t5Cwz6AnTKyfM-58" vertex="1">
          <mxGeometry width="30" height="30" as="geometry">
            <mxRectangle width="30" height="30" as="alternateBounds" />
          </mxGeometry>
        </mxCell>
        <mxCell id="Ox4McI3t5Cwz6AnTKyfM-60" value="&lt;div style=&quot;font-size: 14px; line-height: 19px; white-space: pre;&quot;&gt;password&lt;/div&gt;" style="shape=partialRectangle;connectable=0;fillColor=none;top=0;left=0;bottom=0;right=0;align=left;spacingLeft=6;overflow=hidden;whiteSpace=wrap;html=1;fontFamily=Consolas;strokeColor=default;fontColor=default;labelBackgroundColor=default;fontSize=14;" parent="Ox4McI3t5Cwz6AnTKyfM-58" vertex="1">
          <mxGeometry x="30" width="150" height="30" as="geometry">
            <mxRectangle width="150" height="30" as="alternateBounds" />
          </mxGeometry>
        </mxCell>
        <mxCell id="Ox4McI3t5Cwz6AnTKyfM-73" value="Recording" style="shape=table;startSize=30;container=1;collapsible=1;childLayout=tableLayout;fixedRows=1;rowLines=0;fontStyle=1;align=center;resizeLast=1;html=1;fontFamily=Consolas;fontSize=14;fontColor=default;strokeColor=default;labelBackgroundColor=default;" parent="1" vertex="1">
          <mxGeometry x="440" y="160" width="180" height="240" as="geometry" />
        </mxCell>
        <mxCell id="Ox4McI3t5Cwz6AnTKyfM-74" value="" style="shape=tableRow;horizontal=0;startSize=0;swimlaneHead=0;swimlaneBody=0;fillColor=none;collapsible=0;dropTarget=0;points=[[0,0.5],[1,0.5]];portConstraint=eastwest;top=0;left=0;right=0;bottom=1;fontFamily=Consolas;fontSize=14;strokeColor=default;fontColor=default;labelBackgroundColor=default;" parent="Ox4McI3t5Cwz6AnTKyfM-73" vertex="1">
          <mxGeometry y="30" width="180" height="30" as="geometry" />
        </mxCell>
        <mxCell id="Ox4McI3t5Cwz6AnTKyfM-75" value="PK" style="shape=partialRectangle;connectable=0;fillColor=none;top=0;left=0;bottom=0;right=0;fontStyle=1;overflow=hidden;whiteSpace=wrap;html=1;fontFamily=Consolas;fontSize=14;strokeColor=default;fontColor=default;labelBackgroundColor=default;" parent="Ox4McI3t5Cwz6AnTKyfM-74" vertex="1">
          <mxGeometry width="30" height="30" as="geometry">
            <mxRectangle width="30" height="30" as="alternateBounds" />
          </mxGeometry>
        </mxCell>
        <mxCell id="Ox4McI3t5Cwz6AnTKyfM-76" value="recordingId" style="shape=partialRectangle;connectable=0;fillColor=none;top=0;left=0;bottom=0;right=0;align=left;spacingLeft=6;fontStyle=5;overflow=hidden;whiteSpace=wrap;html=1;fontFamily=Consolas;fontSize=14;strokeColor=default;fontColor=default;labelBackgroundColor=default;" parent="Ox4McI3t5Cwz6AnTKyfM-74" vertex="1">
          <mxGeometry x="30" width="150" height="30" as="geometry">
            <mxRectangle width="150" height="30" as="alternateBounds" />
          </mxGeometry>
        </mxCell>
        <mxCell id="O-BWAG5vvZAAsm4EetkP-4" style="shape=tableRow;horizontal=0;startSize=0;swimlaneHead=0;swimlaneBody=0;fillColor=none;collapsible=0;dropTarget=0;points=[[0,0.5],[1,0.5]];portConstraint=eastwest;top=0;left=0;right=0;bottom=0;fontFamily=Consolas;fontSize=14;strokeColor=default;fontColor=default;labelBackgroundColor=default;" parent="Ox4McI3t5Cwz6AnTKyfM-73" vertex="1">
          <mxGeometry y="60" width="180" height="30" as="geometry" />
        </mxCell>
        <mxCell id="O-BWAG5vvZAAsm4EetkP-5" value="FK" style="shape=partialRectangle;connectable=0;fillColor=none;top=0;left=0;bottom=0;right=0;editable=1;overflow=hidden;whiteSpace=wrap;html=1;fontFamily=Consolas;fontSize=14;strokeColor=default;fontColor=default;labelBackgroundColor=default;" parent="O-BWAG5vvZAAsm4EetkP-4" vertex="1">
          <mxGeometry width="30" height="30" as="geometry">
            <mxRectangle width="30" height="30" as="alternateBounds" />
          </mxGeometry>
        </mxCell>
        <mxCell id="O-BWAG5vvZAAsm4EetkP-6" value="&lt;span style=&quot;white-space: pre; font-size: 14px;&quot;&gt;userId&lt;/span&gt;" style="shape=partialRectangle;connectable=0;fillColor=none;top=0;left=0;bottom=0;right=0;align=left;spacingLeft=6;overflow=hidden;whiteSpace=wrap;html=1;fontFamily=Consolas;fontSize=14;strokeColor=default;fontColor=default;labelBackgroundColor=default;" parent="O-BWAG5vvZAAsm4EetkP-4" vertex="1">
          <mxGeometry x="30" width="150" height="30" as="geometry">
            <mxRectangle width="150" height="30" as="alternateBounds" />
          </mxGeometry>
        </mxCell>
        <mxCell id="Ox4McI3t5Cwz6AnTKyfM-80" value="" style="shape=tableRow;horizontal=0;startSize=0;swimlaneHead=0;swimlaneBody=0;fillColor=none;collapsible=0;dropTarget=0;points=[[0,0.5],[1,0.5]];portConstraint=eastwest;top=0;left=0;right=0;bottom=0;fontFamily=Consolas;fontSize=14;strokeColor=default;fontColor=default;labelBackgroundColor=default;" parent="Ox4McI3t5Cwz6AnTKyfM-73" vertex="1">
          <mxGeometry y="90" width="180" height="30" as="geometry" />
        </mxCell>
        <mxCell id="Ox4McI3t5Cwz6AnTKyfM-81" value="FK" style="shape=partialRectangle;connectable=0;fillColor=none;top=0;left=0;bottom=0;right=0;editable=1;overflow=hidden;whiteSpace=wrap;html=1;fontFamily=Consolas;fontSize=14;strokeColor=default;fontColor=default;labelBackgroundColor=default;" parent="Ox4McI3t5Cwz6AnTKyfM-80" vertex="1">
          <mxGeometry width="30" height="30" as="geometry">
            <mxRectangle width="30" height="30" as="alternateBounds" />
          </mxGeometry>
        </mxCell>
        <mxCell id="Ox4McI3t5Cwz6AnTKyfM-82" value="&lt;div style=&quot;font-size: 14px; line-height: 19px; white-space: pre;&quot;&gt;&lt;div style=&quot;line-height: 19px; font-size: 14px;&quot;&gt;surahId&lt;/div&gt;&lt;/div&gt;" style="shape=partialRectangle;connectable=0;fillColor=none;top=0;left=0;bottom=0;right=0;align=left;spacingLeft=6;overflow=hidden;whiteSpace=wrap;html=1;fontFamily=Consolas;fontSize=14;strokeColor=default;fontColor=default;labelBackgroundColor=default;" parent="Ox4McI3t5Cwz6AnTKyfM-80" vertex="1">
          <mxGeometry x="30" width="150" height="30" as="geometry">
            <mxRectangle width="150" height="30" as="alternateBounds" />
          </mxGeometry>
        </mxCell>
        <mxCell id="Ox4McI3t5Cwz6AnTKyfM-83" value="" style="shape=tableRow;horizontal=0;startSize=0;swimlaneHead=0;swimlaneBody=0;fillColor=none;collapsible=0;dropTarget=0;points=[[0,0.5],[1,0.5]];portConstraint=eastwest;top=0;left=0;right=0;bottom=0;fontFamily=Consolas;fontSize=14;strokeColor=default;fontColor=default;labelBackgroundColor=default;" parent="Ox4McI3t5Cwz6AnTKyfM-73" vertex="1">
          <mxGeometry y="120" width="180" height="30" as="geometry" />
        </mxCell>
        <mxCell id="Ox4McI3t5Cwz6AnTKyfM-84" value="" style="shape=partialRectangle;connectable=0;fillColor=none;top=0;left=0;bottom=0;right=0;editable=1;overflow=hidden;whiteSpace=wrap;html=1;fontFamily=Consolas;fontSize=14;strokeColor=default;fontColor=default;labelBackgroundColor=default;" parent="Ox4McI3t5Cwz6AnTKyfM-83" vertex="1">
          <mxGeometry width="30" height="30" as="geometry">
            <mxRectangle width="30" height="30" as="alternateBounds" />
          </mxGeometry>
        </mxCell>
        <mxCell id="Ox4McI3t5Cwz6AnTKyfM-85" value="&lt;div style=&quot;font-size: 14px; line-height: 19px; white-space: pre;&quot;&gt;&lt;div style=&quot;line-height: 19px; font-size: 14px;&quot;&gt;audioUrl&lt;/div&gt;&lt;/div&gt;" style="shape=partialRectangle;connectable=0;fillColor=none;top=0;left=0;bottom=0;right=0;align=left;spacingLeft=6;overflow=hidden;whiteSpace=wrap;html=1;fontFamily=Consolas;fontSize=14;strokeColor=default;fontColor=default;labelBackgroundColor=default;" parent="Ox4McI3t5Cwz6AnTKyfM-83" vertex="1">
          <mxGeometry x="30" width="150" height="30" as="geometry">
            <mxRectangle width="150" height="30" as="alternateBounds" />
          </mxGeometry>
        </mxCell>
        <mxCell id="Ox4McI3t5Cwz6AnTKyfM-89" style="shape=tableRow;horizontal=0;startSize=0;swimlaneHead=0;swimlaneBody=0;fillColor=none;collapsible=0;dropTarget=0;points=[[0,0.5],[1,0.5]];portConstraint=eastwest;top=0;left=0;right=0;bottom=0;fontFamily=Consolas;fontSize=14;strokeColor=default;fontColor=default;labelBackgroundColor=default;" parent="Ox4McI3t5Cwz6AnTKyfM-73" vertex="1">
          <mxGeometry y="150" width="180" height="30" as="geometry" />
        </mxCell>
        <mxCell id="Ox4McI3t5Cwz6AnTKyfM-90" style="shape=partialRectangle;connectable=0;fillColor=none;top=0;left=0;bottom=0;right=0;editable=1;overflow=hidden;whiteSpace=wrap;html=1;fontFamily=Consolas;fontSize=14;strokeColor=default;fontColor=default;labelBackgroundColor=default;" parent="Ox4McI3t5Cwz6AnTKyfM-89" vertex="1">
          <mxGeometry width="30" height="30" as="geometry">
            <mxRectangle width="30" height="30" as="alternateBounds" />
          </mxGeometry>
        </mxCell>
        <mxCell id="Ox4McI3t5Cwz6AnTKyfM-91" value="&lt;div style=&quot;font-size: 14px; line-height: 19px; white-space: pre;&quot;&gt;&lt;div style=&quot;line-height: 19px; font-size: 14px;&quot;&gt;finalScore&lt;/div&gt;&lt;/div&gt;" style="shape=partialRectangle;connectable=0;fillColor=none;top=0;left=0;bottom=0;right=0;align=left;spacingLeft=6;overflow=hidden;whiteSpace=wrap;html=1;fontFamily=Consolas;fontSize=14;fontColor=default;strokeColor=default;labelBackgroundColor=default;" parent="Ox4McI3t5Cwz6AnTKyfM-89" vertex="1">
          <mxGeometry x="30" width="150" height="30" as="geometry">
            <mxRectangle width="150" height="30" as="alternateBounds" />
          </mxGeometry>
        </mxCell>
        <mxCell id="Ox4McI3t5Cwz6AnTKyfM-92" style="shape=tableRow;horizontal=0;startSize=0;swimlaneHead=0;swimlaneBody=0;fillColor=none;collapsible=0;dropTarget=0;points=[[0,0.5],[1,0.5]];portConstraint=eastwest;top=0;left=0;right=0;bottom=0;fontFamily=Consolas;fontSize=14;strokeColor=default;fontColor=default;labelBackgroundColor=default;" parent="Ox4McI3t5Cwz6AnTKyfM-73" vertex="1">
          <mxGeometry y="180" width="180" height="30" as="geometry" />
        </mxCell>
        <mxCell id="Ox4McI3t5Cwz6AnTKyfM-93" style="shape=partialRectangle;connectable=0;fillColor=none;top=0;left=0;bottom=0;right=0;editable=1;overflow=hidden;whiteSpace=wrap;html=1;fontFamily=Consolas;fontSize=14;strokeColor=default;fontColor=default;labelBackgroundColor=default;" parent="Ox4McI3t5Cwz6AnTKyfM-92" vertex="1">
          <mxGeometry width="30" height="30" as="geometry">
            <mxRectangle width="30" height="30" as="alternateBounds" />
          </mxGeometry>
        </mxCell>
        <mxCell id="Ox4McI3t5Cwz6AnTKyfM-94" value="&lt;div style=&quot;font-size: 14px; line-height: 19px; white-space: pre;&quot;&gt;&lt;div style=&quot;line-height: 19px; font-size: 14px;&quot;&gt;passed&lt;/div&gt;&lt;/div&gt;" style="shape=partialRectangle;connectable=0;fillColor=none;top=0;left=0;bottom=0;right=0;align=left;spacingLeft=6;overflow=hidden;whiteSpace=wrap;html=1;fontFamily=Consolas;fontSize=14;strokeColor=default;fontColor=default;labelBackgroundColor=default;" parent="Ox4McI3t5Cwz6AnTKyfM-92" vertex="1">
          <mxGeometry x="30" width="150" height="30" as="geometry">
            <mxRectangle width="150" height="30" as="alternateBounds" />
          </mxGeometry>
        </mxCell>
        <mxCell id="Ox4McI3t5Cwz6AnTKyfM-95" style="shape=tableRow;horizontal=0;startSize=0;swimlaneHead=0;swimlaneBody=0;fillColor=none;collapsible=0;dropTarget=0;points=[[0,0.5],[1,0.5]];portConstraint=eastwest;top=0;left=0;right=0;bottom=0;fontFamily=Consolas;fontSize=14;strokeColor=default;fontColor=default;labelBackgroundColor=default;" parent="Ox4McI3t5Cwz6AnTKyfM-73" vertex="1">
          <mxGeometry y="210" width="180" height="30" as="geometry" />
        </mxCell>
        <mxCell id="Ox4McI3t5Cwz6AnTKyfM-96" style="shape=partialRectangle;connectable=0;fillColor=none;top=0;left=0;bottom=0;right=0;editable=1;overflow=hidden;whiteSpace=wrap;html=1;fontFamily=Consolas;fontSize=14;strokeColor=default;fontColor=default;labelBackgroundColor=default;" parent="Ox4McI3t5Cwz6AnTKyfM-95" vertex="1">
          <mxGeometry width="30" height="30" as="geometry">
            <mxRectangle width="30" height="30" as="alternateBounds" />
          </mxGeometry>
        </mxCell>
        <mxCell id="Ox4McI3t5Cwz6AnTKyfM-97" value="&lt;div style=&quot;font-size: 14px; line-height: 19px; white-space: pre;&quot;&gt;&lt;div style=&quot;line-height: 19px; font-size: 14px;&quot;&gt;recordedAt&lt;/div&gt;&lt;/div&gt;" style="shape=partialRectangle;connectable=0;fillColor=none;top=0;left=0;bottom=0;right=0;align=left;spacingLeft=6;overflow=hidden;whiteSpace=wrap;html=1;fontFamily=Consolas;fontSize=14;strokeColor=default;fontColor=default;labelBackgroundColor=default;" parent="Ox4McI3t5Cwz6AnTKyfM-95" vertex="1">
          <mxGeometry x="30" width="150" height="30" as="geometry">
            <mxRectangle width="150" height="30" as="alternateBounds" />
          </mxGeometry>
        </mxCell>
        <mxCell id="Ox4McI3t5Cwz6AnTKyfM-107" value="Surah" style="shape=table;startSize=30;container=1;collapsible=1;childLayout=tableLayout;fixedRows=1;rowLines=0;fontStyle=1;align=center;resizeLast=1;html=1;fontFamily=Consolas;strokeColor=default;fontColor=default;labelBackgroundColor=default;fontSize=14;" parent="1" vertex="1">
          <mxGeometry x="180" y="280" width="180" height="120" as="geometry" />
        </mxCell>
        <mxCell id="Ox4McI3t5Cwz6AnTKyfM-108" value="" style="shape=tableRow;horizontal=0;startSize=0;swimlaneHead=0;swimlaneBody=0;fillColor=none;collapsible=0;dropTarget=0;points=[[0,0.5],[1,0.5]];portConstraint=eastwest;top=0;left=0;right=0;bottom=1;fontFamily=Consolas;strokeColor=default;fontColor=default;labelBackgroundColor=default;fontSize=14;" parent="Ox4McI3t5Cwz6AnTKyfM-107" vertex="1">
          <mxGeometry y="30" width="180" height="30" as="geometry" />
        </mxCell>
        <mxCell id="Ox4McI3t5Cwz6AnTKyfM-109" value="PK" style="shape=partialRectangle;connectable=0;fillColor=none;top=0;left=0;bottom=0;right=0;fontStyle=1;overflow=hidden;whiteSpace=wrap;html=1;fontFamily=Consolas;strokeColor=default;fontColor=default;labelBackgroundColor=default;fontSize=14;" parent="Ox4McI3t5Cwz6AnTKyfM-108" vertex="1">
          <mxGeometry width="30" height="30" as="geometry">
            <mxRectangle width="30" height="30" as="alternateBounds" />
          </mxGeometry>
        </mxCell>
        <mxCell id="Ox4McI3t5Cwz6AnTKyfM-110" value="surahId" style="shape=partialRectangle;connectable=0;fillColor=none;top=0;left=0;bottom=0;right=0;align=left;spacingLeft=6;fontStyle=5;overflow=hidden;whiteSpace=wrap;html=1;fontFamily=Consolas;strokeColor=default;fontColor=default;labelBackgroundColor=default;fontSize=14;" parent="Ox4McI3t5Cwz6AnTKyfM-108" vertex="1">
          <mxGeometry x="30" width="150" height="30" as="geometry">
            <mxRectangle width="150" height="30" as="alternateBounds" />
          </mxGeometry>
        </mxCell>
        <mxCell id="Ox4McI3t5Cwz6AnTKyfM-111" value="" style="shape=tableRow;horizontal=0;startSize=0;swimlaneHead=0;swimlaneBody=0;fillColor=none;collapsible=0;dropTarget=0;points=[[0,0.5],[1,0.5]];portConstraint=eastwest;top=0;left=0;right=0;bottom=0;fontFamily=Consolas;strokeColor=default;fontColor=default;labelBackgroundColor=default;fontSize=14;" parent="Ox4McI3t5Cwz6AnTKyfM-107" vertex="1">
          <mxGeometry y="60" width="180" height="30" as="geometry" />
        </mxCell>
        <mxCell id="Ox4McI3t5Cwz6AnTKyfM-112" value="" style="shape=partialRectangle;connectable=0;fillColor=none;top=0;left=0;bottom=0;right=0;editable=1;overflow=hidden;whiteSpace=wrap;html=1;fontFamily=Consolas;strokeColor=default;fontColor=default;labelBackgroundColor=default;fontSize=14;" parent="Ox4McI3t5Cwz6AnTKyfM-111" vertex="1">
          <mxGeometry width="30" height="30" as="geometry">
            <mxRectangle width="30" height="30" as="alternateBounds" />
          </mxGeometry>
        </mxCell>
        <mxCell id="Ox4McI3t5Cwz6AnTKyfM-113" value="&lt;div style=&quot;line-height: 19px; white-space: pre; font-size: 14px;&quot;&gt;title&lt;/div&gt;" style="shape=partialRectangle;connectable=0;fillColor=none;top=0;left=0;bottom=0;right=0;align=left;spacingLeft=6;overflow=hidden;whiteSpace=wrap;html=1;fontFamily=Consolas;fontSize=14;strokeColor=default;fontColor=default;labelBackgroundColor=default;" parent="Ox4McI3t5Cwz6AnTKyfM-111" vertex="1">
          <mxGeometry x="30" width="150" height="30" as="geometry">
            <mxRectangle width="150" height="30" as="alternateBounds" />
          </mxGeometry>
        </mxCell>
        <mxCell id="Ox4McI3t5Cwz6AnTKyfM-120" style="shape=tableRow;horizontal=0;startSize=0;swimlaneHead=0;swimlaneBody=0;fillColor=none;collapsible=0;dropTarget=0;points=[[0,0.5],[1,0.5]];portConstraint=eastwest;top=0;left=0;right=0;bottom=0;fontFamily=Consolas;strokeColor=default;fontColor=default;labelBackgroundColor=default;fontSize=14;" parent="Ox4McI3t5Cwz6AnTKyfM-107" vertex="1">
          <mxGeometry y="90" width="180" height="30" as="geometry" />
        </mxCell>
        <mxCell id="Ox4McI3t5Cwz6AnTKyfM-121" style="shape=partialRectangle;connectable=0;fillColor=none;top=0;left=0;bottom=0;right=0;editable=1;overflow=hidden;whiteSpace=wrap;html=1;fontFamily=Consolas;strokeColor=default;fontColor=default;labelBackgroundColor=default;fontSize=14;" parent="Ox4McI3t5Cwz6AnTKyfM-120" vertex="1">
          <mxGeometry width="30" height="30" as="geometry">
            <mxRectangle width="30" height="30" as="alternateBounds" />
          </mxGeometry>
        </mxCell>
        <mxCell id="Ox4McI3t5Cwz6AnTKyfM-122" value="&lt;div style=&quot;font-size: 14px; line-height: 19px; white-space: pre;&quot;&gt;&lt;div style=&quot;line-height: 19px; font-size: 14px;&quot;&gt;description&lt;/div&gt;&lt;/div&gt;" style="shape=partialRectangle;connectable=0;fillColor=none;top=0;left=0;bottom=0;right=0;align=left;spacingLeft=6;overflow=hidden;whiteSpace=wrap;html=1;fontFamily=Consolas;strokeColor=default;fontColor=default;labelBackgroundColor=default;fontSize=14;" parent="Ox4McI3t5Cwz6AnTKyfM-120" vertex="1">
          <mxGeometry x="30" width="150" height="30" as="geometry">
            <mxRectangle width="150" height="30" as="alternateBounds" />
          </mxGeometry>
        </mxCell>
        <mxCell id="FdLa9jVv8HJEU9HBcvsw-12" value="" style="edgeStyle=entityRelationEdgeStyle;fontSize=14;html=1;endArrow=ERoneToMany;rounded=0;exitX=1;exitY=0.5;exitDx=0;exitDy=0;entryX=0;entryY=0.5;entryDx=0;entryDy=0;strokeColor=default;fontColor=default;labelBackgroundColor=default;fontFamily=Consolas;" parent="1" source="Ox4McI3t5Cwz6AnTKyfM-2" target="O-BWAG5vvZAAsm4EetkP-4" edge="1">
          <mxGeometry width="100" height="100" relative="1" as="geometry">
            <mxPoint x="360" y="140" as="sourcePoint" />
            <mxPoint x="450" y="140" as="targetPoint" />
          </mxGeometry>
        </mxCell>
        <mxCell id="O-BWAG5vvZAAsm4EetkP-7" value="" style="edgeStyle=entityRelationEdgeStyle;fontSize=14;html=1;endArrow=ERoneToMany;rounded=0;exitX=1;exitY=0.5;exitDx=0;exitDy=0;entryX=0;entryY=0.5;entryDx=0;entryDy=0;strokeColor=default;fontColor=default;labelBackgroundColor=default;fontFamily=Consolas;" parent="1" source="Ox4McI3t5Cwz6AnTKyfM-108" target="Ox4McI3t5Cwz6AnTKyfM-80" edge="1">
          <mxGeometry width="100" height="100" relative="1" as="geometry">
            <mxPoint x="370" y="115" as="sourcePoint" />
            <mxPoint x="460" y="115" as="targetPoint" />
          </mxGeometry>
        </mxCell>
      </root>
    </mxGraphModel>
  </diagram>
</mxfile>
